Coordinates
version=1
nRows=16
nColumns=22
inDegrees=yes

Units are S.I. units (second, meters, Newtons, ...)
If the header above contains a line with 'inDegrees', this indicates whether rotational values are in degrees (yes) or radians (no).

endheader
time	pelvis_tilt	pelvis_list	pelvis_rotation	pelvis_tx	pelvis_ty	pelvis_tz	hip_flexion_r	hip_adduction_r	hip_rotation_r	knee_angle_r	ankle_angle_r	subtalar_angle_r	hip_flexion_l	hip_adduction_l	hip_rotation_l	knee_angle_l	ankle_angle_l	subtalar_angle_l	lumbar_extension	lumbar_bending	lumbar_rotation
      4.24000000	      7.18333197	     -6.40160948	    -31.91602283	      0.99345692	      0.90367977	     -0.42099108	     14.93787320	      3.89533050	    -33.67537736	    -12.99929742	      1.60254529	     -4.50452811	    -19.15278971	     -8.04429829	    -14.16047142	    -29.09485789	     32.03057478	    -11.29999182	    -14.93085820	      4.65360879	    -18.42498304
      4.25000000	      6.87491811	     -6.81590699	    -32.27243985	      1.00141284	      0.90396926	     -0.41156026	     14.70802343	      4.53165918	    -33.58431193	    -13.90149459	      1.34810647	     -6.17670263	    -18.91075589	     -8.80480087	    -13.34183629	    -30.93169351	     31.04740492	    -12.43570463	    -14.60553931	      5.05633176	    -18.31943576
      4.26000000	      6.55863112	     -7.17247373	    -32.68165455	      1.00909507	      0.90446566	     -0.40203316	     14.50192252	      5.17455547	    -33.26525783	    -14.75904357	      1.24056209	     -7.69426312	    -18.46085678	     -9.50715350	    -12.36612706	    -32.98868594	     29.78259887	    -13.60365215	    -14.26318725	      5.38887372	    -18.21614802
      4.27000000	      6.24866662	     -7.46705301	    -33.15103446	      1.01651430	      0.90515923	     -0.39246735	     14.30774621	      5.80270574	    -32.76371129	    -15.57351765	      1.30120390	     -9.01880351	    -17.82136024	    -10.11473855	    -11.21862910	    -35.22591511	     28.17844194	    -14.76277745	    -13.91876986	      5.64585928	    -18.07733389
      4.28000000	      5.95392966	     -7.70301605	    -33.66919219	      1.02366475	      0.90600993	     -0.38293815	     14.10461152	      6.41278369	    -32.08890438	    -16.31990020	      1.53955505	    -10.11108639	    -16.99334613	    -10.61531157	     -9.89506768	    -37.63206632	     26.23419041	    -15.84154753	    -13.58948722	      5.83575168	    -17.93042571
      4.29000000	      5.65350527	     -7.86289768	    -34.23682130	      1.03053196	      0.90692453	     -0.37351173	     13.92025183	      6.99349926	    -31.27393496	    -16.99279728	      1.88658156	    -10.83450262	    -15.94389943	    -10.99203757	     -8.40520488	    -40.18750127	     23.94728991	    -16.66916579	    -13.24994379	      5.96068411	    -17.75758431
      4.30000000	      5.42246934	     -8.01210616	    -34.83328875	      1.03714267	      0.90798512	     -0.36423504	     13.64143200	      7.53811662	    -30.44598906	    -17.59788912	      2.43207072	    -11.51430790	    -14.79853577	    -11.26012289	     -6.82370367	    -42.84248069	     21.35072138	    -17.41957591	    -13.01925235	      6.04443562	    -17.58784873
      4.31000000	      5.21478143	     -8.11317838	    -35.47176745	      1.04347807	      0.90907613	     -0.35514632	     13.32651198	      8.04326202	    -29.56545650	    -18.11283506	      2.98630955	    -11.79433045	    -13.50757053	    -11.38947231	     -5.14409418	    -45.54980577	     18.50836970	    -17.78817787	    -12.83116077	      6.08144313	    -17.37782230
      4.32000000	      5.00588079	     -8.19728081	    -36.11010045	      1.04952895	      0.91010295	     -0.34626021	     12.96316599	      8.54780916	    -28.72944215	    -18.49726223	      3.63224443	    -12.00632380	    -12.05138550	    -11.46494951	     -3.44203918	    -48.32301829	     15.58447946	    -17.91937100	    -12.68328082	      6.11495394	    -17.19996958
      4.33000000	      4.79796634	     -8.29097232	    -36.76579241	      1.05532820	      0.91107998	     -0.33756075	     12.52985588	      9.06529962	    -27.96108177	    -18.75830704	      4.27254676	    -12.08115110	    -10.49806771	    -11.49536629	     -1.76009176	    -51.07653883	     12.71608079	    -17.75855054	    -12.59090051	      6.17242088	    -16.99388393
      4.34000000	      4.57371403	     -8.40555602	    -37.43330579	      1.06085843	      0.91196719	     -0.32902128	     12.02724491	      9.61986154	    -27.26603990	    -18.87672949	      4.88206881	    -12.04684345	     -8.85610793	    -11.52506140	     -0.15067737	    -53.77559172	     10.06728908	    -17.35067299	    -12.54497411	      6.26920630	    -16.77570868
      4.35000000	      4.32652391	     -8.55097353	    -38.11946814	      1.06611705	      0.91276121	     -0.32059133	     11.44872169	     10.22800679	    -26.63344993	    -18.84438934	      5.43756751	    -11.93810135	     -7.15497696	    -11.58253967	      1.34678582	    -56.37073511	      7.79112590	    -16.80530970	    -12.54299956	      6.41165715	    -16.53307654
      4.36000000	      4.05460609	     -8.72570140	    -38.83764765	      1.07109237	      0.91346680	     -0.31222340	     10.79588908	     10.89243511	    -26.04011401	    -18.66571556	      5.92830737	    -11.78839112	     -5.41928818	    -11.68234381	      2.70014254	    -58.81649156	      6.00018782	    -16.24907433	    -12.57839995	      6.59126104	    -16.25394037
      4.37000000	      3.75246453	     -8.91885344	    -39.60433270	      1.07576651	      0.91408930	     -0.30386756	     10.08482762	     11.60993841	    -25.44633727	    -18.35677882	      6.32980069	    -11.63074572	     -3.66091700	    -11.83044962	      3.89195533	    -61.07475245	      4.74736825	    -15.82521007	    -12.63619772	      6.79312740	    -15.92056325
      4.38000000	      3.42753068	     -9.11207433	    -40.43110335	      1.08013431	      0.91464430	     -0.29549766	      9.32767442	     12.35893315	    -24.81632349	    -17.93936820	      6.66516796	    -11.46790272	     -1.89365029	    -12.01442013	      4.91753018	    -63.11260043	      4.02030175	    -15.52181337	    -12.70558281	      6.99229102	    -15.53886491
      4.39000000	      3.08837709	     -9.31006343	    -41.34244380	      1.08419526	      0.91518295	     -0.28704666	      8.50657775	     13.13919764	    -24.12441237	    -17.41724959	      6.92663090	    -11.32944723	     -0.15719596	    -12.24292869	      5.75319894	    -64.89542160	      3.75042204	    -15.43027204	    -12.79155305	      7.17632988	    -15.06421158
